# xmcd CD database file
#
# Track frame offsets:
#	150
#	20510
#	32640
#	45315
#	57532
#	77020
#	92907
#	110155
#	125350
#	139200
#	153475
#	169415
#
# Disc length: 2461 seconds
#
# Revision: 1
# Processed by: cddbd v1.5.2PL0 Copyright (c) Steve Scherf et al.
# Submitted via: CDex 1.51
#
DISCID=a2099b0c
DTITLE=Henry Mancini - More Music from "Peter Gunn"
DYEAR=1959
DGENRE=Jazz
TTITLE0=Walkin' Bass 
TTITLE1=Timothy 
TTITLE2=Joanna 
TTITLE3=My Manne Shelly 
TTITLE4=Goofin' at the Coffee House 
TTITLE5=Odd Ball 
TTITLE6=Blue Steel 
TTITLE7=Little Man Theme 
TTITLE8=Spook! 
TTITLE9=Quiet Gass 
TTITLE10=Lightly 
TTITLE11=Blues for Mother's 
EXTD=YEAR: 1959
EXTT0=
EXTT1=
EXTT2=
EXTT3=
EXTT4=
EXTT5=
EXTT6=
EXTT7=
EXTT8=
EXTT9=
EXTT10=
EXTT11=
PLAYORDER=
